<svg width="108" height="18" viewBox="0 0 108 18" fill="none" xmlns="http://www.w3.org/2000/svg">
<path d="M16.3548 6.5008L11.2882 5.72971L9.0233 0.921406C8.96144 0.789757 8.85967 0.683184 8.73395 0.618405C8.41866 0.455412 8.03552 0.591239 7.87788 0.921406L5.61296 5.72971L0.546342 6.5008C0.406656 6.52169 0.278942 6.59065 0.181162 6.69513C0.0629508 6.82237 -0.0021889 6.99354 5.61657e-05 7.17104C0.00230123 7.34854 0.0717474 7.51784 0.193135 7.64175L3.8589 11.3843L2.99285 16.6691C2.97254 16.792 2.98553 16.9184 3.03035 17.034C3.07517 17.1496 3.15002 17.2498 3.24641 17.3231C3.34281 17.3964 3.4569 17.44 3.57574 17.4488C3.69458 17.4577 3.81341 17.4315 3.91877 17.3733L8.45059 14.8782L12.9824 17.3733C13.1061 17.4423 13.2498 17.4652 13.3875 17.4402C13.7347 17.3775 13.9682 17.0327 13.9083 16.6691L13.0423 11.3843L16.708 7.64175C16.8078 7.53936 16.8737 7.40562 16.8936 7.25934C16.9475 6.89365 16.7041 6.55513 16.3548 6.5008Z" fill="#FFC107"/>
<path d="M39.4018 6.5008L34.3352 5.72971L32.0703 0.921406C32.0084 0.789757 31.9067 0.683184 31.781 0.618405C31.4657 0.455412 31.0825 0.591239 30.9249 0.921406L28.66 5.72971L23.5933 6.5008C23.4537 6.52169 23.3259 6.59065 23.2282 6.69513C23.1099 6.82237 23.0448 6.99354 23.0471 7.17104C23.0493 7.34854 23.1187 7.51784 23.2401 7.64175L26.9059 11.3843L26.0398 16.6691C26.0195 16.792 26.0325 16.9184 26.0773 17.034C26.1222 17.1496 26.197 17.2498 26.2934 17.3231C26.3898 17.3964 26.5039 17.44 26.6227 17.4488C26.7416 17.4577 26.8604 17.4315 26.9658 17.3733L31.4976 14.8782L36.0294 17.3733C36.1531 17.4423 36.2968 17.4652 36.4345 17.4402C36.7817 17.3775 37.0152 17.0327 36.9553 16.6691L36.0893 11.3843L39.755 7.64175C39.8548 7.53936 39.9207 7.40562 39.9406 7.25934C39.9945 6.89365 39.7511 6.55513 39.4018 6.5008Z" fill="#FFC107"/>
<path d="M60.9123 6.5008L55.8457 5.72971L53.5808 0.921406C53.5189 0.789757 53.4172 0.683184 53.2914 0.618405C52.9762 0.455412 52.593 0.591239 52.4354 0.921406L50.1705 5.72971L45.1038 6.5008C44.9642 6.52169 44.8364 6.59065 44.7387 6.69513C44.6204 6.82237 44.5553 6.99354 44.5576 7.17104C44.5598 7.34854 44.6292 7.51784 44.7506 7.64175L48.4164 11.3843L47.5503 16.6691C47.53 16.792 47.543 16.9184 47.5878 17.034C47.6327 17.1496 47.7075 17.2498 47.8039 17.3231C47.9003 17.3964 48.0144 17.44 48.1332 17.4488C48.2521 17.4577 48.3709 17.4315 48.4763 17.3733L53.0081 14.8782L57.5399 17.3733C57.6636 17.4423 57.8073 17.4652 57.945 17.4402C58.2922 17.3775 58.5257 17.0327 58.4658 16.6691L57.5998 11.3843L61.2655 7.64175C61.3653 7.53936 61.4312 7.40562 61.4511 7.25934C61.505 6.89365 61.2615 6.55513 60.9123 6.5008Z" fill="#FFC107"/>
<path d="M83.9593 6.5008L78.8926 5.72971L76.6277 0.921406C76.5659 0.789757 76.4641 0.683184 76.3384 0.618405C76.0231 0.455412 75.64 0.591239 75.4823 0.921406L73.2174 5.72971L68.1508 6.5008C68.0111 6.52169 67.8834 6.59065 67.7856 6.69513C67.6674 6.82237 67.6022 6.99354 67.6045 7.17104C67.6067 7.34854 67.6762 7.51784 67.7976 7.64175L71.4633 11.3843L70.5973 16.6691C70.577 16.792 70.59 16.9184 70.6348 17.034C70.6796 17.1496 70.7544 17.2498 70.8508 17.3231C70.9472 17.3964 71.0613 17.44 71.1802 17.4488C71.299 17.4577 71.4178 17.4315 71.5232 17.3733L76.055 14.8782L80.5868 17.3733C80.7106 17.4423 80.8542 17.4652 80.9919 17.4402C81.3392 17.3775 81.5726 17.0327 81.5128 16.6691L80.6467 11.3843L84.3125 7.64175C84.4123 7.53936 84.4781 7.40562 84.4981 7.25934C84.5519 6.89365 84.3085 6.55513 83.9593 6.5008Z" fill="#FFC107"/>
<path d="M107.006 6.5008L101.94 5.72971L99.6747 0.921406C99.6128 0.789757 99.511 0.683184 99.3853 0.618405C99.07 0.455412 98.6869 0.591239 98.5292 0.921406L96.2643 5.72971L91.1977 6.5008C91.058 6.52169 90.9303 6.59065 90.8325 6.69513C90.7143 6.82237 90.6492 6.99354 90.6514 7.17104C90.6537 7.34854 90.7231 7.51784 90.8445 7.64175L94.5103 11.3843L93.6442 16.6691C93.6239 16.792 93.6369 16.9184 93.6817 17.034C93.7265 17.1496 93.8014 17.2498 93.8978 17.3231C93.9942 17.3964 94.1083 17.44 94.2271 17.4488C94.3459 17.4577 94.4648 17.4315 94.5701 17.3733L99.102 14.8782L103.634 17.3733C103.758 17.4423 103.901 17.4652 104.039 17.4402C104.386 17.3775 104.62 17.0327 104.56 16.6691L103.694 11.3843L107.359 7.64175C107.459 7.53936 107.525 7.40562 107.545 7.25934C107.599 6.89365 107.355 6.55513 107.006 6.5008Z" fill="#FFC107"/>
</svg>
